<mxfile host="app.diagrams.net" modified="2023-09-20T06:06:21.816Z" agent="Mozilla/5.0 (Macintosh; Intel Mac OS X 10_15_7) AppleWebKit/605.1.15 (KHTML, like Gecko) Version/16.6 Safari/605.1.15" version="21.7.5" etag="zYWmzekZ_xjTqHPFYtDI" type="github">
  <diagram name="第 1 页" id="CSG1BCk2cKeRT0SmVOTO">
    <mxGraphModel>
      <root>
        <mxCell id="0" />
        <mxCell id="1" parent="0" />
      </root>
    </mxGraphModel>
  </diagram>
</mxfile>
